<svg id="Layer_1" data-name="Layer 1" xmlns="http://www.w3.org/2000/svg" viewBox="0 0 63.64 69.58"><defs><style>.cls-1{fill:#ffb400;}</style></defs><title>rose</title><g id="Layer_2" data-name="Layer 2"><g id="Layer_1-2" data-name="Layer 1-2"><path class="cls-1" d="M29.24,42.8c6.27-11.38,7.21-27.95-1.49-38.53C24.7.54,19.5-1.8,15.36,1.76S11.18,12,11.92,16.82A28.59,28.59,0,0,0,37.47,40.61a29.61,29.61,0,0,0,19.29-4.52c4.13-2.82,8.2-8.11,6.48-13.4-3.87-12-20.67-3.79-26.36,1.57-9.76,9.2-12.45,24.42-5.7,36.19,2.71,4.73,7.23,8.76,12.88,9.1s10.78-3.13,11.62-8.94C57.5,48,41.37,40,31.26,38.34A38.2,38.2,0,0,0,10.13,40.7C5.37,42.7-1.38,47.42.25,53.56c1.48,5.62,8.46,6.39,13,4.27,3.43-1.62,6.09-4.57,8.74-7.17L33,39.82c1.73-1.69-.93-4.34-2.65-2.65L20.6,46.73c-3,2.94-7.34,8.68-12,8.52-1.7-.06-4.37-1.51-4.85-3.4C3.47,50.62,5.62,48,6.24,47.43a17.64,17.64,0,0,1,5.57-3.37,33.35,33.35,0,0,1,12.27-2.53c8.52-.14,17.55,2.75,23.67,8.87,3.83,3.83,6.71,10.6,1.09,14.3-5.21,3.43-11.27-1.07-14-5.51a25.76,25.76,0,0,1,.07-26.53c3.84-6.34,12-13.33,20-12.14s4.09,9.74-.6,12.74a25.54,25.54,0,0,1-13,3.74A25.15,25.15,0,0,1,18.62,24.7a23.93,23.93,0,0,1-3.27-12.6c.13-3.77,1.75-10.16,7-7.48,2.56,1.29,3.93,4,5.07,6.52A33.26,33.26,0,0,1,26,40.91C24.83,43,28.07,44.91,29.24,42.8Z" transform="translate(0 0)"/></g></g></svg>